<svg width="15" height="16" viewBox="0 0 15 16" fill="none" xmlns="http://www.w3.org/2000/svg">
<path d="M13.4545 6.90921L7.18182 13.1819C5.97636 14.3874 4.02364 14.3874 2.81818 13.1819C1.61273 11.9765 1.61273 10.0238 2.81818 8.8183L9.63636 2.00012C10.3891 1.2474 11.6109 1.2474 12.3636 2.00012C13.1164 2.75285 13.1164 3.97467 12.3636 4.7274L6.63636 10.4547C6.33636 10.7547 5.84545 10.7547 5.54545 10.4547C5.24545 10.1547 5.24545 9.66376 5.54545 9.36376L10.7273 4.18194L9.90909 3.36376L4.72727 8.54558C3.97455 9.2983 3.97455 10.5201 4.72727 11.2728C5.48 12.0256 6.70182 12.0256 7.45455 11.2728L13.1818 5.54558C14.3873 4.34012 14.3873 2.3874 13.1818 1.18194C11.9764 -0.0235136 10.0236 -0.0235134 8.81818 1.18194L2 8.00012C0.341818 9.6583 0.341818 12.3419 2 14.0001C3.65818 15.6583 6.34182 15.6583 8 14.0001L14.2727 7.7274L13.4545 6.90921Z" fill="#616161"/>
</svg>
