<svg width="188" height="32" viewBox="0 0 188 32" fill="none" xmlns="http://www.w3.org/2000/svg">
<g clip-path="url(#clip0)">
<path d="M4.01767 9.54097C4.41678 7.20968 5.11522 1.8421 10.7652 0.746126C11.9334 0.519444 13.4404 0.3094 16.3693 0.629666L15.4984 5.0614C12.609 4.868 11.553 5.62291 11.0957 6.10747C10.3598 6.88734 10.0397 8.8027 9.88378 9.80301L6.07559 31.3461H0.136719L4.01767 9.54097Z" fill="#191F58"/>
<path d="M16.7028 11.3787H20.5026L19.9788 14.8018H20.0931C20.8643 13.3003 21.6335 12.6119 22.6354 11.9984C23.6373 11.3849 24.737 11.0792 25.9385 11.0792C26.5392 11.0792 26.9383 11.1291 27.142 11.229L26.3771 16.3324H26.2274C25.7992 16.2576 25.3876 16.2201 24.9864 16.2201C23.3609 16.1952 22.0242 16.6652 20.9807 17.628C19.9351 18.5909 19.245 20.0612 18.9083 22.039L17.2474 31.3475H11.5039L14.6947 13.0632C14.8652 12.0837 15.7071 11.3787 16.7028 11.3787Z" fill="#191F58"/>
<path d="M25.8706 31.3464H31.612L35.1354 11.3776H31.0736C30.0779 11.3776 29.236 12.0846 29.0656 13.0621L25.8706 31.3464Z" fill="#191F58"/>
<path d="M41.7595 3.42297H45.8234L40.9134 31.3485H35.1367L39.7514 5.10541C39.9219 4.12798 40.7638 3.42297 41.7595 3.42297Z" fill="#191F58"/>
<path d="M50.3742 31.872C48.4971 31.872 46.988 31.3708 45.8447 30.3705C44.6993 29.3702 44.111 28.0184 44.0798 26.3173C44.057 25.0924 44.2628 24.0837 44.6972 23.2955C45.1317 22.5074 45.7449 21.8751 46.5369 21.3989C47.3289 20.9247 48.2851 20.567 49.4055 20.33C50.5259 20.0929 51.7607 19.912 53.1098 19.7851C55.0326 19.6104 56.3837 19.3213 57.1632 18.922C57.9428 18.5227 58.3252 17.8718 58.3086 16.9713C58.2961 16.3204 58.0363 15.7755 57.527 15.3388C57.0177 14.9021 56.2756 14.6816 55.3007 14.6816C54.2738 14.6816 53.4423 14.9208 52.8 15.3949C52.1577 15.8712 51.7461 16.5471 51.5632 17.4226H46.1606C46.4974 15.4199 47.4557 13.8186 49.0334 12.6186C50.6111 11.4166 52.7377 10.8156 55.415 10.8156C58.5414 10.8156 60.7823 11.5601 62.1355 13.0491C63.4888 14.5381 63.9419 16.5845 63.4908 19.1862L62.1376 26.9183C61.911 28.1703 61.8403 29.0957 61.9276 29.6967C62.0129 30.2977 62.1854 30.7345 62.439 31.009L62.4078 31.348H57.7432C57.2256 31.348 56.7579 31.0069 56.6165 30.5057C56.5937 30.4246 56.5729 30.3435 56.5521 30.2582C56.4565 29.8589 56.4045 29.4076 56.3941 28.9064H56.2819C55.6229 29.8069 54.806 30.5265 53.8269 31.0651C52.852 31.6038 51.7004 31.872 50.3742 31.872ZM52.6337 28.3075C53.9329 28.3075 54.9577 27.9311 55.7081 27.1824C56.4565 26.4317 56.92 25.4937 57.0988 24.3666L57.6102 21.6651C57.263 21.8647 56.9242 22.027 56.5874 22.1517C56.2528 22.2765 55.9035 22.3826 55.5439 22.4699C55.1822 22.5573 54.8018 22.6342 54.4027 22.6945C54.0036 22.7569 53.5671 22.838 53.0952 22.9378C51.9228 23.1624 51.0726 23.5077 50.5446 23.9694C50.0166 24.4331 49.7589 25.0903 49.7755 25.9388C49.7921 26.7894 50.0852 27.3966 50.6548 27.7585C51.2223 28.1266 51.8833 28.3075 52.6337 28.3075Z" fill="#191F58"/>
<path d="M69.7827 11.3795H73.62L73.0442 14.6071H73.1564C73.9339 13.3822 74.8651 12.4359 75.9544 11.7725C77.0415 11.1091 78.2992 10.7784 79.7252 10.7784C80.75 10.7784 81.6542 10.9968 82.44 11.4356C83.2236 11.8744 83.8535 12.4609 84.3295 13.1992C84.8055 13.9374 85.134 14.8005 85.3169 15.7883C85.4977 16.7762 85.4873 17.8347 85.2836 18.9598L83.0802 31.3462H77.3388L79.4362 19.3736C79.615 18.2485 79.4965 17.3356 79.0849 16.6327C78.6713 15.9318 77.8897 15.5824 76.7401 15.5824C75.6384 15.5824 74.6905 15.99 73.8944 16.8032C73.0962 17.6163 72.5723 18.6978 72.325 20.0495L70.3253 31.3483H64.5859L67.7768 13.064C67.9451 12.0845 68.787 11.3795 69.7827 11.3795Z" fill="#191F58"/>
<path d="M95.4679 31.9903C92.5161 31.9903 90.2046 31.383 88.5313 30.1706C86.8579 28.9581 85.9641 27.2986 85.8477 25.1981H91.3251C91.4435 26.1735 91.8447 26.9242 92.5307 27.4504C93.2167 27.9765 94.1459 28.2386 95.3224 28.2386C96.3472 28.2386 97.1309 28.0202 97.6734 27.5814C98.216 27.1447 98.48 26.5624 98.4654 25.8366C98.4592 25.4622 98.3407 25.1357 98.1099 24.8612C97.8792 24.5867 97.5612 24.3475 97.1579 24.1479C96.7546 23.9482 96.2682 23.7673 95.7028 23.603C95.1374 23.4408 94.5138 23.2724 93.8361 23.0977C93.0566 22.8731 92.3 22.6214 91.5703 22.3469C90.8386 22.0724 90.188 21.7147 89.6184 21.278C89.0468 20.8412 88.5874 20.3089 88.2382 19.6829C87.8889 19.0569 87.706 18.2812 87.6873 17.3557C87.6665 16.3055 87.8557 15.3738 88.2548 14.5607C88.6518 13.7476 89.2193 13.0592 89.9593 12.4956C90.6994 11.932 91.5849 11.5078 92.618 11.2187C93.6511 10.9317 94.7674 10.7882 95.9668 10.7882C98.692 10.7882 100.767 11.3144 102.186 12.3646C103.606 13.4148 104.473 14.8664 104.783 16.7194H99.3426C99.2034 15.9936 98.8541 15.4362 98.297 15.0494C97.7399 14.6626 96.9729 14.4671 95.998 14.4671C95.1228 14.4671 94.4265 14.6543 93.9068 15.0307C93.3892 15.405 93.1356 15.9187 93.1481 16.5696C93.1543 16.9211 93.2666 17.2081 93.4827 17.4327C93.6989 17.6573 94.0024 17.859 94.3932 18.0337C94.784 18.2084 95.2621 18.3789 95.8275 18.5412C96.3929 18.7054 97.0165 18.8739 97.6942 19.0486C98.4737 19.2482 99.2408 19.4936 99.9953 19.7806C100.752 20.0676 101.428 20.4378 102.024 20.887C102.621 21.3383 103.113 21.8998 103.5 22.5757C103.889 23.2516 104.09 24.0772 104.109 25.0525C104.13 26.1776 103.937 27.1738 103.529 28.0368C103.12 28.8999 102.533 29.6257 101.768 30.2142C101.004 30.8028 100.087 31.2457 99.0183 31.5473C97.952 31.8405 96.7671 31.9903 95.4679 31.9903Z" fill="#191F58"/>
<path d="M111.792 31.9479C110.69 31.9479 109.736 31.742 108.929 31.3281C108.121 30.9143 107.472 30.3465 106.984 29.6208C106.495 28.895 106.171 28.0319 106.015 27.0316C105.859 26.0313 105.882 24.9291 106.084 23.7291L107.921 13.0688C108.09 12.0893 108.934 11.3801 109.931 11.3801H113.991L111.858 23.5419C111.655 24.6441 111.746 25.5134 112.133 26.1498C112.519 26.7883 113.239 27.121 114.29 27.1439C115.515 27.1688 116.517 26.8007 117.29 26.0354C118.063 25.2722 118.575 24.2157 118.824 22.864L120.527 13.0646C120.697 12.0851 121.539 11.3781 122.537 11.3781H126.598L123.075 31.3469H117.523L117.997 28.6059H117.922C117.142 29.6831 116.269 30.5088 115.305 31.0827C114.338 31.6609 113.168 31.9479 111.792 31.9479Z" fill="#191F58"/>
<path d="M135.651 31.9843C132.699 31.9843 130.388 31.377 128.715 30.1646C127.041 28.9521 126.147 27.2926 126.031 25.1921H131.508C131.627 26.1675 132.028 26.9182 132.714 27.4444C133.4 27.9705 134.329 28.2326 135.506 28.2326C136.531 28.2326 137.314 28.0142 137.857 27.5754C138.399 27.1387 138.663 26.5564 138.649 25.8306C138.643 25.4562 138.524 25.1297 138.293 24.8552C138.063 24.5807 137.745 24.3416 137.341 24.1419C136.938 23.9423 136.452 23.7613 135.886 23.597C135.321 23.4348 134.699 23.2664 134.019 23.0917C133.24 22.8671 132.483 22.6154 131.754 22.3409C131.022 22.0664 130.371 21.7087 129.802 21.272C129.23 20.8353 128.771 20.3029 128.422 19.6769C128.072 19.0509 127.889 18.2752 127.871 17.3498C127.85 16.2995 128.039 15.3679 128.438 14.5547C128.835 13.7416 129.403 13.0532 130.143 12.4896C130.883 11.926 131.768 11.5018 132.801 11.2127C133.834 10.9257 134.951 10.7822 136.15 10.7822C138.875 10.7822 140.95 11.3084 142.37 12.3586C143.789 13.4088 144.656 14.8604 144.966 16.7134H139.526C139.387 15.9876 139.037 15.4302 138.48 15.0434C137.923 14.6566 137.156 14.4611 136.181 14.4611C135.306 14.4611 134.61 14.6483 134.09 15.0247C133.573 15.3991 133.319 15.9127 133.331 16.5637C133.338 16.9151 133.45 17.2021 133.666 17.4267C133.882 17.6513 134.186 17.853 134.577 18.0277C134.967 18.2024 135.445 18.373 136.011 18.5352C136.576 18.6995 137.2 18.8679 137.878 19.0426C138.657 19.2422 139.424 19.4876 140.179 19.7746C140.935 20.0616 141.611 20.4318 142.208 20.881C142.804 21.3323 143.297 21.8938 143.683 22.5697C144.072 23.2456 144.274 24.0712 144.292 25.0466C144.313 26.1716 144.12 27.1678 143.713 28.0309C143.303 28.8939 142.717 29.6197 141.952 30.2083C141.187 30.7968 140.27 31.2398 139.202 31.5413C138.137 31.8345 136.95 31.9843 135.651 31.9843Z" fill="#191F58"/>
<path d="M31.8594 5.91921C14.7516 5.56775 4.26041 17.8107 0.269287 23.5255C0.269287 23.5255 1.0197 18.3638 1.45623 15.9078C2.43738 10.3946 20.6988 4.19934 31.8927 6.00656L31.8594 5.91921Z" fill="#00A2FF"/>
<path d="M34.0801 -0.13057L34.8949 3.0097C34.9157 3.09081 34.9843 3.14488 35.0674 3.15112L38.3664 3.36116C38.5618 3.37364 38.6137 3.6232 38.4453 3.7459L35.6121 5.80891C35.5393 5.8609 35.4998 5.95033 35.5144 6.03144L36.0049 9.27153C36.034 9.46286 35.8054 9.61467 35.6536 9.50445L33.0864 7.63693C33.0199 7.58909 32.9285 7.58702 32.8515 7.63277L29.8561 9.42543C29.6794 9.53149 29.4861 9.37552 29.5589 9.18419L30.8061 5.96905C30.8373 5.88586 30.8207 5.79851 30.7604 5.74444L28.4177 3.6128C28.2784 3.48594 28.3886 3.23846 28.586 3.23015L31.9244 3.10953C32.0097 3.10745 32.0907 3.05338 32.1302 2.97435L33.6789 -0.13473C33.7703 -0.319819 34.0323 -0.315659 34.0801 -0.13057Z" fill="#FF9600"/>
<path d="M154.249 31.7915C153.524 31.7915 152.863 31.6813 152.266 31.4588C151.67 31.2362 151.165 30.9201 150.745 30.5104C150.327 30.1008 150.003 29.61 149.77 29.0381C149.537 28.4662 149.414 27.8235 149.4 27.1102C149.381 26.1681 149.506 25.2905 149.774 24.4774C150.042 23.6642 150.431 22.953 150.944 22.3478C151.458 21.7426 152.079 21.2643 152.813 20.9149C153.547 20.5656 154.364 20.3909 155.264 20.3909C155.977 20.3909 156.605 20.4907 157.145 20.6945C157.686 20.8962 158.143 21.1728 158.513 21.5222C158.883 21.8716 159.17 22.2834 159.373 22.7534C159.577 23.2254 159.698 23.7287 159.735 24.2673H157.295C157.257 23.6892 157.066 23.2171 156.723 22.8553C156.38 22.4913 155.865 22.3104 155.181 22.3104C154.642 22.3104 154.168 22.4476 153.757 22.7242C153.345 23.0008 153.002 23.3668 152.728 23.8244C152.453 24.2819 152.248 24.806 152.112 25.3987C151.975 25.9914 151.913 26.5965 151.925 27.2142C151.942 28.0481 152.146 28.697 152.537 29.1608C152.927 29.6245 153.495 29.8574 154.235 29.8574C155.607 29.8574 156.507 29.0838 156.933 27.5365H159.434C159.124 28.9486 158.515 30.0113 157.609 30.7247C156.7 31.4359 155.58 31.7915 154.249 31.7915Z" fill="#00A2FF"/>
<path d="M165.283 31.7726C164.516 31.7726 163.827 31.6478 163.218 31.4003C162.609 31.1508 162.094 30.8076 161.676 30.3709C161.258 29.9342 160.932 29.4164 160.699 28.8174C160.466 28.2185 160.344 27.5696 160.329 26.8709C160.312 25.9828 160.447 25.1447 160.734 24.3586C161.021 23.5725 161.429 22.8821 161.957 22.2894C162.485 21.6967 163.112 21.2308 163.846 20.8877C164.58 20.5446 165.389 20.374 166.276 20.374C167.043 20.374 167.727 20.4988 168.33 20.7463C168.933 20.9958 169.448 21.339 169.872 21.7757C170.296 22.2124 170.627 22.7282 170.86 23.3188C171.093 23.9115 171.215 24.5562 171.23 25.257C171.246 26.1575 171.111 27.006 170.824 27.8005C170.538 28.5949 170.13 29.2833 169.602 29.8697C169.074 30.4541 168.444 30.9179 167.713 31.2631C166.981 31.6 166.17 31.7726 165.283 31.7726ZM165.349 29.8947C165.887 29.8947 166.361 29.7595 166.773 29.4912C167.185 29.2229 167.534 28.8736 167.823 28.441C168.11 28.0105 168.326 27.5156 168.471 26.9582C168.615 26.4009 168.681 25.8248 168.671 25.2321C168.654 24.317 168.438 23.5871 168.024 23.0422C167.611 22.4973 167 22.2249 166.193 22.2249C165.669 22.2249 165.197 22.3601 164.78 22.6284C164.362 22.8966 164.008 23.2502 163.721 23.6869C163.435 24.1236 163.218 24.6248 163.075 25.1905C162.932 25.7562 162.865 26.3343 162.875 26.927C162.892 27.8275 163.108 28.5471 163.522 29.0857C163.931 29.6264 164.543 29.8947 165.349 29.8947Z" fill="#00A2FF"/>
<path d="M173.48 20.6728H175.9L175.608 22.3677H175.648C176.08 21.75 176.565 21.2613 177.103 20.9036C177.641 20.548 178.273 20.3691 178.999 20.3691C179.67 20.3691 180.229 20.5542 180.674 20.9244C181.117 21.2946 181.421 21.802 181.581 22.4488H181.62C182.119 21.7625 182.67 21.2447 183.275 20.8953C183.88 20.5459 184.518 20.3712 185.191 20.3712C185.703 20.3712 186.158 20.469 186.559 20.6645C186.958 20.8599 187.291 21.1365 187.553 21.4922C187.815 21.8478 187.991 22.2699 188.081 22.7524C188.17 23.237 188.168 23.7694 188.07 24.3475L186.813 31.4516H184.331L185.551 24.4702C185.659 23.838 185.593 23.3472 185.351 22.9978C185.11 22.6484 184.686 22.4737 184.081 22.4737C183.503 22.4737 182.98 22.6963 182.51 23.1392C182.04 23.5822 181.739 24.1957 181.606 24.9756L180.458 31.4537H177.937L179.176 24.491C179.271 23.8442 179.2 23.3472 178.966 22.9978C178.731 22.6484 178.33 22.4737 177.766 22.4737C177.483 22.4737 177.205 22.532 176.933 22.6464C176.66 22.7607 176.407 22.925 176.176 23.1413C175.945 23.3576 175.744 23.6217 175.575 23.9378C175.407 24.2539 175.293 24.6075 175.232 24.9964L174.103 31.4537H171.582L173.48 20.6728Z" fill="#00A2FF"/>
<path d="M147.329 31.0377C147.868 30.4926 147.855 29.6045 147.3 29.054C146.744 28.5036 145.857 28.4993 145.317 29.0445C144.777 29.5896 144.79 30.4777 145.346 31.0281C145.901 31.5785 146.789 31.5828 147.329 31.0377Z" fill="#00A2FF"/>
</g>
<defs>
<clipPath id="clip0">
<rect width="188" height="32" fill="white"/>
</clipPath>
</defs>
</svg>
