<svg width="279" height="222" viewBox="0 0 279 222" fill="none" xmlns="http://www.w3.org/2000/svg">
<g clip-path="url(#clip0)">
<path d="M264.641 57.0822L412.365 79.6657L278.664 62.9129L346.669 74.4237L266.376 66.9416L264.641 57.0822Z" fill="#00A2FF"/>
<path opacity="0.8" d="M264.641 57.0822L412.365 79.6657L278.664 62.9129L346.669 74.4237L266.376 66.9416L264.641 57.0822Z" fill="white"/>
<path d="M269.019 69.6162L263.92 67.9988C263.731 67.9382 263.531 67.9245 263.336 67.9589C263.141 67.9933 262.957 68.0748 262.801 68.1963L258.557 71.4523C258.377 71.5922 258.161 71.6784 257.933 71.7012C257.706 71.724 257.477 71.6824 257.272 71.5812C257.067 71.48 256.895 71.3233 256.775 71.1289C256.655 70.9344 256.593 70.7102 256.594 70.4819L256.574 65.1329C256.573 64.935 256.523 64.7403 256.43 64.5656C256.337 64.3909 256.204 64.2413 256.04 64.1296L251.627 61.1003C251.44 60.969 251.294 60.7883 251.205 60.5785C251.115 60.3687 251.086 60.1381 251.121 59.9127C251.155 59.6873 251.252 59.4759 251.4 59.3024C251.548 59.1289 251.741 59.0001 251.958 58.9305L257.046 57.2783C257.234 57.2161 257.403 57.1091 257.54 56.9666C257.678 56.824 257.778 56.6502 257.833 56.4602L259.354 51.3301C259.42 51.1123 259.545 50.917 259.716 50.7662C259.886 50.6153 260.095 50.5149 260.319 50.4761C260.543 50.4374 260.774 50.4618 260.985 50.5466C261.196 50.6315 261.38 50.7734 261.515 50.9565L264.659 55.2748C264.776 55.4347 264.93 55.5642 265.107 55.6526C265.285 55.7409 265.481 55.7855 265.679 55.7827L271.03 55.6372C271.257 55.6329 271.482 55.692 271.677 55.8078C271.873 55.9236 272.033 56.0916 272.138 56.293C272.244 56.4943 272.292 56.7212 272.276 56.948C272.26 57.1749 272.182 57.3929 272.049 57.5777L268.874 61.902C268.757 62.061 268.68 62.2462 268.65 62.4416C268.62 62.6371 268.638 62.8369 268.703 63.0237L270.447 68.0581C270.509 68.2623 270.517 68.4792 270.47 68.6875C270.423 68.8958 270.323 69.0882 270.178 69.2456C270.034 69.403 269.851 69.52 269.648 69.585C269.444 69.65 269.228 69.6607 269.019 69.6162Z" fill="#FF9900"/>
<path d="M97.1799 18.7878L186.992 32.518L105.705 22.3283L147.05 29.3278L98.2411 24.782L97.1799 18.7878Z" fill="#00A2FF"/>
<path opacity="0.8" d="M97.1797 18.7881L186.992 32.5182L105.705 22.3286L147.05 29.328L98.2408 24.7822L97.1797 18.7881Z" fill="white"/>
<path d="M99.8425 26.4092L96.7445 25.4077C96.6306 25.3699 96.5091 25.3606 96.3907 25.3804C96.2723 25.4003 96.1605 25.4488 96.0651 25.5217L93.4838 27.4984C93.3733 27.5809 93.2421 27.6311 93.1047 27.6434C92.9674 27.6558 92.8293 27.6298 92.7058 27.5684C92.5824 27.507 92.4784 27.4125 92.4054 27.2955C92.3324 27.1785 92.2933 27.0435 92.2924 26.9056L92.2868 23.6537C92.2868 23.534 92.2579 23.4161 92.2027 23.3099C92.1474 23.2038 92.0675 23.1125 91.9695 23.0438L89.2851 21.2005C89.172 21.1206 89.0834 21.0108 89.0293 20.8834C88.9751 20.756 88.9575 20.616 88.9784 20.4791C88.9994 20.3423 89.058 20.214 89.1477 20.1085C89.2375 20.0031 89.3548 19.9248 89.4866 19.8823L92.5726 18.8793C92.6875 18.8418 92.7916 18.7772 92.8762 18.691C92.9608 18.6047 93.0235 18.4994 93.0589 18.3839L93.9798 15.2652C94.0178 15.1318 94.0926 15.0118 94.1957 14.9191C94.2988 14.8263 94.426 14.7645 94.5626 14.7408C94.6993 14.717 94.8398 14.7323 94.9682 14.7849C95.0965 14.8374 95.2074 14.9251 95.2882 15.0379L97.2234 17.6715C97.2931 17.7691 97.3854 17.8483 97.4923 17.9026C97.5993 17.9569 97.7177 17.9846 97.8376 17.9833L101.094 17.8946C101.237 17.8806 101.381 17.9087 101.508 17.9753C101.635 18.042 101.74 18.1444 101.81 18.2698C101.88 18.3953 101.911 18.5384 101.901 18.6816C101.89 18.8248 101.838 18.9619 101.751 19.076L99.8488 21.7094C99.776 21.8066 99.7283 21.9202 99.71 22.0401C99.6916 22.1601 99.7032 22.2828 99.7436 22.3972L100.833 25.463C100.884 25.5996 100.894 25.7482 100.862 25.8904C100.829 26.0325 100.755 26.1619 100.65 26.2626C100.544 26.3634 100.412 26.4309 100.268 26.457C100.125 26.483 99.9767 26.4664 99.8425 26.4092Z" fill="#FF9900"/>
<path d="M169.418 154.188L232.069 173.581L175.126 157.625L203.895 167.038L169.535 158.58L169.418 154.188Z" fill="#00A2FF"/>
<path opacity="0.8" d="M169.422 154.188L232.073 173.581L175.13 157.625L203.899 167.038L169.539 158.58L169.422 154.188Z" fill="white"/>
<path d="M170.505 159.914L168.4 158.868C168.323 158.829 168.237 158.809 168.15 158.811C168.064 158.812 167.979 158.835 167.903 158.877L165.849 160.012C165.761 160.059 165.662 160.081 165.563 160.075C165.464 160.069 165.368 160.036 165.286 159.979C165.205 159.922 165.14 159.843 165.101 159.752C165.061 159.661 165.048 159.56 165.062 159.462L165.405 157.14C165.418 157.054 165.41 156.967 165.382 156.885C165.354 156.803 165.306 156.73 165.244 156.67L163.524 155.068C163.452 154.999 163.4 154.911 163.375 154.814C163.35 154.717 163.353 154.615 163.382 154.52C163.412 154.424 163.467 154.339 163.543 154.273C163.618 154.208 163.71 154.164 163.809 154.148L166.119 153.762C166.205 153.747 166.286 153.712 166.356 153.66C166.425 153.607 166.481 153.539 166.519 153.46L167.509 151.332C167.551 151.241 167.617 151.163 167.701 151.108C167.784 151.052 167.881 151.022 167.982 151.02C168.082 151.017 168.18 151.043 168.266 151.094C168.352 151.146 168.422 151.22 168.468 151.309L169.568 153.396C169.608 153.473 169.665 153.54 169.735 153.59C169.806 153.64 169.888 153.672 169.973 153.684L172.308 153.969C172.411 153.974 172.511 154.009 172.594 154.07C172.678 154.132 172.742 154.216 172.779 154.313C172.815 154.41 172.822 154.516 172.8 154.617C172.777 154.718 172.725 154.81 172.651 154.882L171.011 156.559C170.949 156.621 170.903 156.697 170.877 156.78C170.851 156.864 170.846 156.953 170.863 157.039L171.313 159.344C171.335 159.447 171.326 159.554 171.288 159.652C171.249 159.75 171.183 159.835 171.097 159.895C171.011 159.956 170.909 159.99 170.804 159.993C170.698 159.996 170.595 159.969 170.505 159.914Z" fill="#FF9900"/>
<path d="M87.2858 59.431L79.4032 53.9358C79.4032 53.9358 76.9259 49.3675 75.5991 48.1256C74.2723 46.8838 69.9627 49.8615 69.5909 50.8688C69.219 51.8761 74.9599 57.4042 74.9599 57.4042L76.8155 57.7633L85.5495 65.3075L87.2858 59.431Z" fill="#FFB573"/>
<path d="M121.086 73.0365C121.086 73.0365 110.198 71.1456 105.338 68.953C100.478 66.7605 81.604 54.8927 81.604 54.8927L79.6457 61.0704C79.6457 61.0704 96.7735 75.8637 101.126 77.7608C105.478 79.6578 120.731 83.7997 120.731 83.7997L121.086 73.0365Z" fill="#00A2FF"/>
<path d="M120.729 83.8161C120.729 83.8161 115.098 82.2848 109.667 80.6502C112.338 79.6174 116.718 78.3764 120.869 79.5054L120.729 83.8161Z" fill="#088FDC"/>
<path d="M203.12 82.8205L199.243 80.1749L194.931 85.1381L190.975 89.6949L195.065 93.5797L199.33 87.8803L203.12 82.8205Z" fill="#FFB573"/>
<path d="M198.242 79.8628C197.958 80.2969 203.437 83.5393 203.437 83.5393C203.437 83.5393 208.906 82.4566 212.548 83.8512C216.189 85.2458 215.72 82.1744 212.214 79.7866L203.54 73.8771C201.051 72.1811 201.164 75.3322 198.242 79.8628Z" fill="#263238"/>
<path d="M207.121 84.0769C207.293 84.1776 207.426 84.3338 207.497 84.5199C207.527 84.6393 207.519 84.765 207.474 84.8797C207.43 84.9944 207.351 85.0925 207.248 85.1606C207.177 85.2242 207.093 85.2723 207.002 85.3017C206.911 85.331 206.815 85.3411 206.719 85.3311C206.244 85.2262 205.807 84.9911 205.457 84.6522C205.73 85.1715 205.917 85.7028 205.738 85.9939C205.56 86.285 205.415 86.2461 205.096 86.1973C204.955 86.1777 204.82 86.1281 204.7 86.0519C204.58 85.9758 204.478 85.8749 204.401 85.7559C203.9 84.9755 204.282 83.4587 204.303 83.3781C204.3 83.3585 204.303 83.3384 204.312 83.3208L204.369 83.3295C205.324 83.4126 206.255 83.6658 207.121 84.0769ZM206.048 84.6838C206.252 84.8416 206.492 84.9473 206.746 84.9917C206.796 84.998 206.847 84.994 206.895 84.9797C206.944 84.9655 206.988 84.9414 207.027 84.9089C207.211 84.7444 207.185 84.6399 207.173 84.6128C207.071 84.2369 205.911 83.8753 204.912 83.6722C205.254 84.0487 205.634 84.3877 206.048 84.6838ZM204.869 85.7605C204.953 85.8152 205.048 85.8498 205.147 85.8616C205.245 85.8766 205.409 85.9017 205.455 85.8166C205.602 85.5709 205.131 84.6525 204.553 83.8268C204.409 84.4074 204.453 85.0188 204.68 85.5724C204.732 85.6449 204.796 85.7084 204.869 85.7605Z" fill="#00A2FF"/>
<path opacity="0.2" d="M199.415 87.7677L194.999 85.0313L191.018 89.6429L195.086 93.5579L199.415 87.7677Z" fill="black"/>
<path d="M198.744 89.9267C198.744 89.9267 195.291 94.4263 190.752 99.8911C186.853 104.68 182.697 109.253 178.301 113.59L178.056 113.82C176.594 115.261 174.993 116.555 173.276 117.681C169.382 120.027 163.597 119.553 158.015 117.862C152.255 116.077 146.724 112.96 143.738 110.241C141.282 108.052 139.129 105.545 137.336 102.786L143.192 92.1595C143.192 92.1595 153.05 96.4651 168.995 105.95L169.401 106.196L178.816 97.9993L192.09 86.421L198.744 89.9267Z" fill="#00A2FF"/>
<path d="M191.279 86.6746L198.872 90.8854L199.805 89.4946L192.604 85.6286L191.279 86.6746Z" fill="#00A2FF"/>
<path opacity="0.2" d="M178.056 113.82C176.594 115.261 174.993 116.555 173.276 117.681C169.382 120.027 163.597 119.553 158.015 117.862C155.556 115.164 153.497 112.126 151.903 108.842L145.105 106.722L152.209 106.132L178.056 113.82Z" fill="black"/>
<path opacity="0.2" d="M191.279 86.6746L198.872 90.8854L199.805 89.4946L192.604 85.6286L191.279 86.6746Z" fill="black"/>
<path opacity="0.2" d="M190.748 99.891C186.85 104.68 182.693 109.253 178.297 113.59L168.163 107.096L168.991 105.95L169.398 106.196L178.812 97.9993C181.778 98.3856 186.173 99.0156 190.748 99.891Z" fill="black"/>
<path d="M227.373 106.923L225.677 102.558L219.307 104.215L213.469 105.736L214.653 111.254L221.388 108.966L227.373 106.923Z" fill="#FFB573"/>
<path d="M225.024 101.729C224.55 101.925 227.237 107.698 227.237 107.698C227.237 107.698 232.356 109.897 234.571 113.11C236.787 116.322 238.137 113.521 236.596 109.565C235.056 105.609 233.874 102.596 232.782 99.7647C231.69 96.9332 229.974 99.6622 225.024 101.729Z" fill="#263238"/>
<path d="M229.967 110.219C230.05 110.401 230.072 110.604 230.03 110.799C229.983 110.914 229.903 111.013 229.8 111.082C229.697 111.152 229.575 111.188 229.451 111.188C229.358 111.199 229.264 111.191 229.174 111.164C229.085 111.137 229.002 111.093 228.93 111.033C228.603 110.676 228.38 110.236 228.286 109.761C228.197 110.343 228.073 110.885 227.765 111.031C227.65 111.068 227.526 111.07 227.41 111.034C227.294 110.998 227.191 110.927 227.117 110.831C227.013 110.736 226.93 110.619 226.875 110.49C226.82 110.36 226.793 110.219 226.797 110.078C226.822 109.144 227.993 108.116 228.06 108.059C228.128 108.003 228.06 108.059 228.116 108.026L228.165 108.033C228.187 108.03 228.21 108.033 228.23 108.043C228.93 108.664 229.517 109.4 229.967 110.219ZM228.734 110.123C228.816 110.368 228.954 110.59 229.137 110.771C229.174 110.804 229.218 110.828 229.264 110.842C229.311 110.856 229.361 110.861 229.409 110.855C229.665 110.827 229.697 110.731 229.71 110.7C229.825 110.332 229.075 109.371 228.349 108.64C228.43 109.145 228.559 109.642 228.734 110.123ZM227.151 110.334C227.188 110.43 227.246 110.516 227.322 110.586C227.397 110.648 227.522 110.759 227.603 110.721C227.864 110.602 227.996 109.575 227.983 108.567C227.531 108.973 227.222 109.513 227.102 110.108C227.109 110.177 227.127 110.245 227.155 110.309L227.151 110.334Z" fill="#00A2FF"/>
<path opacity="0.2" d="M221.523 108.911L219.433 104.167L213.533 105.712L214.682 111.242L221.523 108.911Z" fill="black"/>
<path d="M143.518 89.8135C143.518 89.8135 158.967 86.5947 186.349 107.154L216.257 103.682L219.751 110.316C219.751 110.316 192.261 119.344 183.041 118.815C173.821 118.285 152.52 107.001 152.52 107.001L135.168 99.5975L143.518 89.8135Z" fill="#00A2FF"/>
<path d="M214.992 103.111L216.712 103.374L220.61 110.539L218.738 111.276L214.992 103.111Z" fill="#00A2FF"/>
<path opacity="0.2" d="M214.992 103.111L216.712 103.374L220.61 110.539L218.738 111.276L214.992 103.111Z" fill="black"/>
<path d="M157.755 90.2968C157.755 90.2968 152.907 103.867 141.919 104.375C140.178 104.479 138.433 104.252 136.776 103.706C135.203 103.151 133.755 102.291 132.515 101.175C131.275 100.06 130.268 98.7105 129.55 97.2047C129.102 96.3539 128.747 95.4568 128.493 94.5293L145.166 89.0593L146.543 88.5996C148.609 88.4952 150.679 88.5456 152.737 88.7505C154.742 88.9564 156.709 89.408 157.755 90.2968Z" fill="#0082CC"/>
<path opacity="0.2" d="M146.883 97.8776C143.312 100.683 140.071 102.702 136.775 103.706C135.202 103.151 133.754 102.291 132.514 101.176C131.274 100.06 130.266 98.7109 129.549 97.205C134.603 94.2035 139.817 91.4789 145.167 89.0433L146.544 88.5836C148.61 88.4791 150.68 88.5296 152.738 88.7345C153.145 90.8412 151.865 93.9552 146.883 97.8776Z" fill="black"/>
<path d="M118.771 72.7079C128.561 71.5294 138.491 72.7113 147.731 76.1547C147.731 76.1547 151.64 85.6594 152.222 92.7617C152.222 92.7617 142.125 103.611 130.939 101.532C119.752 99.4532 118.771 72.7079 118.771 72.7079Z" fill="#0082CC"/>
<path opacity="0.2" d="M151.866 90.1759C147.321 87.0176 146.325 78.7879 147.712 76.1341C149.537 80.6729 150.928 85.3745 151.866 90.1759Z" fill="black"/>
<path d="M119.301 60.2113C119.301 60.2113 120.786 45.0206 133.417 50.6385C149.316 57.7445 136.421 76.1514 128.663 72.2588C120.904 68.3662 119.301 60.2113 119.301 60.2113Z" fill="#17272F"/>
<path d="M138.847 75.5168C138.847 75.5168 134.572 83.4184 129.464 82.0845C128.11 81.7261 126.875 81.0157 125.884 80.0253C124.893 79.035 124.182 77.8001 123.824 76.4461C123.745 76.1837 123.682 75.9167 123.636 75.6465C123.636 75.6465 126.406 75.232 125.076 72.691L132.358 68.6343C132.242 69.3302 132.168 70.0324 132.137 70.7372C132.104 71.9973 132.221 73.4229 132.929 73.8914C134.276 74.7762 138.847 75.5168 138.847 75.5168Z" fill="#FFB573"/>
<path opacity="0.2" d="M132.129 70.7358C131.15 73.6279 128.818 77.9218 123.815 76.4447C123.736 76.1824 123.673 75.9153 123.627 75.6452C123.627 75.6452 126.397 75.2307 125.068 72.6897L132.349 68.6329C132.234 69.3288 132.16 70.0311 132.129 70.7358Z" fill="black"/>
<path d="M129.2 53.8314C123.447 52.4911 120.881 55.1404 119.074 60.981C116.829 68.2711 117.248 73.9157 124.817 74.0087C135.063 74.1255 138.741 56.0441 129.2 53.8314Z" fill="#FFB573"/>
<path d="M122.847 61.5158C122.187 62.2668 121.44 62.9374 120.623 63.5135C120.734 63.7912 120.92 64.0324 121.161 64.2098C121.402 64.3873 121.687 64.494 121.986 64.5179L122.847 61.5158Z" fill="#D4827D"/>
<path d="M126.481 61.8619C126.358 62.3375 126.516 62.7806 126.831 62.8622C127.145 62.9438 127.495 62.6286 127.619 62.1448C127.743 61.6611 127.582 61.2343 127.268 61.1527C126.954 61.0711 126.599 61.4191 126.481 61.8619Z" fill="#263238"/>
<path d="M127.394 61.2138L126.496 60.5654C126.496 60.5654 126.765 61.5451 127.394 61.2138Z" fill="#263238"/>
<path d="M120.674 60.2622C120.551 60.7378 120.71 61.181 121.024 61.2626C121.338 61.3441 121.688 61.0289 121.813 60.5452C121.937 60.0614 121.777 59.6264 121.463 59.5448C121.148 59.4633 120.747 59.7873 120.674 60.2622Z" fill="#263238"/>
<path d="M121.612 59.6177L120.691 58.9574C120.691 58.9574 120.942 59.9427 121.612 59.6177Z" fill="#263238"/>
<path d="M127.464 57.898C127.931 57.9497 128.381 58.1078 128.778 58.3603C129.175 58.6127 129.509 58.9528 129.755 59.3543" stroke="#263238" stroke-width="0.72468" stroke-linecap="round" stroke-linejoin="round"/>
<path d="M123.329 56.7293C122.958 56.5388 122.549 56.4347 122.133 56.4247C121.717 56.4147 121.303 56.4992 120.924 56.6718" stroke="#263238" stroke-width="0.72468" stroke-linecap="round" stroke-linejoin="round"/>
<path d="M133.217 64.9865C133.217 64.9865 131.623 59.6314 132.903 56.0816C132.903 56.0816 122.575 48.7713 119.325 60.2149C119.325 60.2149 120.601 49.6763 130.549 51.75C140.496 53.8238 138.271 68.432 132.162 71.562C132.137 71.5582 134.197 68.337 133.217 64.9865Z" fill="#17272F"/>
<path d="M131.992 65.9889C132.203 65.3357 132.664 64.7924 133.274 64.4776C133.884 64.1627 134.593 64.1018 135.248 64.3082C136.99 64.9181 136.989 68.7639 132.342 68.6316C131.675 68.6052 131.464 67.9026 131.992 65.9889Z" fill="#FFB573"/>
<path d="M120.931 66.7029C121.072 67.4107 121.164 68.1275 121.206 68.8482L121.583 68.9058C123.301 69.0679 124.147 68.5771 124.581 67.9816C124.782 67.6856 124.908 67.3458 124.951 66.9907C124.983 66.7915 124.985 66.5886 124.959 66.3886C123.861 66.7532 122.7 66.8838 121.548 66.7722L120.931 66.7029Z" fill="#263238"/>
<path d="M121.517 66.7505L121.614 67.377C123.265 67.5373 124.398 67.4172 124.952 66.9739C124.984 66.7747 124.987 66.5719 124.96 66.3719C123.852 66.7393 122.679 66.8684 121.517 66.7505Z" fill="white"/>
<path d="M121.586 68.8891C123.305 69.0512 124.15 68.5604 124.585 67.9649C123.929 67.9161 123.269 67.9826 122.636 68.1614C122.219 68.2883 121.852 68.5428 121.586 68.8891Z" fill="#DE5753"/>
<path d="M138.997 56.611C138.997 56.611 140.525 52.0937 145.97 52.9261C151.415 53.7585 151.661 56.8629 156.203 57.9008C160.745 58.9387 163.819 56.1492 164.198 53.6683C164.198 53.6683 165.474 55.0783 164.334 57.4428C164.983 56.8261 165.387 55.9947 165.471 55.1029C165.471 55.1029 167.152 58.5189 163.282 62.8961C159.412 67.2733 152.151 66.3727 149.478 64.5648C142.64 59.9666 139.196 62.155 139.196 62.155L138.997 56.611Z" fill="#17272F"/>
<path d="M139.769 61.4382C139.769 61.4382 142.64 59.6483 147.798 63.7298C152.955 67.8112 159.497 68.8699 161.91 65.7448" stroke="#263238" stroke-width="0.5" stroke-linecap="round" stroke-linejoin="round"/>
<path d="M161.976 73.2039L152.875 70.1369C152.875 70.1369 149.245 66.4816 147.588 65.6418C145.932 64.802 142.66 68.8852 142.588 69.9552C142.517 71.0252 149.586 74.7201 149.586 74.7201L151.464 74.5464L162.021 79.3193L161.976 73.2039Z" fill="#FFB573"/>
<path d="M157.95 71.4154L156.312 77.8012L147.708 76.1506C147.708 76.1506 146.592 85.4233 151.547 88.527C151.547 88.527 173.916 88.327 175.748 84.4593C177.579 80.5916 173.69 75.774 157.95 71.4154Z" fill="#00A2FF"/>
<path opacity="0.2" d="M164.953 81.5273C164.953 81.5273 158.9 81.4398 155.946 80.1504C155.279 79.895 154.674 79.4986 154.174 78.9883C153.674 78.478 153.289 77.8658 153.047 77.1934L156.303 77.8169L164.953 81.5273Z" fill="black"/>
<path d="M115.015 193.414C115.015 193.414 133.411 197.5 153.101 233.356L187.367 244.293L187.903 253.231C187.903 253.231 153.536 249.528 143.769 244.414C134.001 239.301 116.357 216.536 116.357 216.536L101.111 199.961L115.015 193.414Z" fill="#00A2FF"/>
<path opacity="0.6" d="M187.903 253.231C187.903 253.231 153.536 249.527 143.768 244.414C134.001 239.301 116.357 216.536 116.357 216.536L101.111 199.961L115.012 193.438C115.012 193.438 129.25 196.604 146.08 221.784C147.683 224.182 149.315 226.769 150.954 229.584C151.661 230.809 152.375 232.075 153.097 233.381L187.363 244.317L187.903 253.231Z" fill="white"/>
<path opacity="0.2" d="M150.953 229.593C145.409 229.684 138.091 228.112 129.867 222.054L142.009 220.458L146.079 221.792C147.686 224.158 149.319 226.745 150.953 229.593Z" fill="black"/>
<path d="M224.837 219.327L222.795 214.105L215.194 216.085L208.22 217.91L209.634 224.502L217.677 221.769L224.837 219.327Z" fill="#FFB573"/>
<path d="M222.02 213.124C221.457 213.357 224.663 220.231 224.663 220.231C224.663 220.231 230.791 222.844 233.428 226.691C236.066 230.538 237.687 227.175 235.844 222.452C234.002 217.729 232.592 214.129 231.287 210.77C229.982 207.412 227.937 210.652 222.02 213.124Z" fill="#263238"/>
<path d="M227.922 223.268C228.026 223.482 228.054 223.726 228.001 223.958C227.945 224.096 227.849 224.213 227.726 224.296C227.603 224.379 227.458 224.423 227.31 224.423C227.198 224.434 227.085 224.422 226.978 224.389C226.871 224.355 226.771 224.3 226.686 224.227C226.288 223.805 226.014 223.282 225.895 222.715C225.79 223.403 225.639 224.058 225.271 224.22C225.036 224.335 224.772 224.252 224.469 223.988C224.346 223.874 224.249 223.735 224.183 223.58C224.117 223.426 224.084 223.26 224.086 223.092C224.113 221.982 225.517 220.747 225.594 220.683L225.667 220.644L225.724 220.653L225.79 220.663L225.863 220.674C226.697 221.411 227.394 222.289 227.922 223.268ZM226.458 223.144C226.553 223.437 226.716 223.703 226.934 223.921C226.979 223.96 227.031 223.989 227.087 224.006C227.144 224.023 227.203 224.029 227.262 224.021C227.569 223.985 227.603 223.873 227.618 223.833C227.76 223.394 226.871 222.252 226.024 221.377C226.11 221.98 226.258 222.573 226.466 223.146L226.458 223.144ZM224.567 223.4C224.61 223.515 224.681 223.618 224.772 223.7C224.853 223.779 225.009 223.903 225.108 223.86C225.415 223.714 225.569 222.489 225.56 221.289C225.027 221.762 224.66 222.393 224.514 223.09C224.511 223.196 224.53 223.301 224.567 223.4Z" fill="#00A2FF"/>
<path opacity="0.2" d="M217.837 221.701L215.335 216.032L208.291 217.879L209.669 224.483L217.837 221.701Z" fill="black"/>
<path d="M90.6335 187.055C90.6335 187.055 87.3533 201.77 86.199 202.415C85.0446 203.06 65.6397 212.863 65.6397 212.863C65.6397 212.863 59.4481 212.914 57.375 213.594C55.302 214.274 56.0163 220.508 56.8668 221.468C57.7172 222.427 66.7776 219.506 66.7776 219.506L68.2017 217.754C68.2017 217.754 88.8351 209.781 90.7514 209.085C92.6676 208.389 99.3564 192.042 99.3564 192.042L90.6335 187.055Z" fill="#FFB573"/>
<path d="M94.6931 179.355C88.665 180.42 87.436 194.652 87.436 194.652L97.2438 199.503L100.172 195.477L94.6931 179.355Z" fill="#00A2FF"/>
<path opacity="0.2" d="M94.6931 179.355C88.665 180.42 87.436 194.652 87.436 194.652L97.2438 199.503L100.172 195.477L94.6931 179.355Z" fill="black"/>
<path d="M124.654 198.892C124.654 198.892 143.12 195.012 175.819 219.601L211.553 215.453L215.721 223.38C215.721 223.38 182.885 234.163 171.872 233.527C160.858 232.891 135.41 219.415 135.41 219.415L114.684 210.565L124.654 198.892Z" fill="#00A2FF"/>
<path opacity="0.6" d="M124.654 198.892C124.654 198.892 143.12 195.012 175.819 219.601L211.553 215.453L215.721 223.38C215.721 223.38 182.885 234.163 171.872 233.527C160.858 232.891 135.41 219.415 135.41 219.415L114.684 210.565L124.654 198.892Z" fill="white"/>
<path d="M210.039 214.778L212.086 215.091L216.744 223.646L214.516 224.52L210.039 214.778Z" fill="#00A2FF"/>
<path d="M104.694 150.777C104.694 150.777 114.123 148.675 119.719 155.588C123.245 159.931 131.464 170.405 136.953 168.102C142.441 165.799 150.947 164.259 154.105 168.646C154.105 168.646 148.019 167.297 144.567 169.266C144.567 169.266 150.647 168.52 152.501 170.479C154.355 172.438 157.709 172.205 157.709 172.205C157.709 172.205 159.084 181.297 144.613 180.149C144.613 180.149 151.755 182.758 155.628 180.392C155.628 180.392 155.657 186.723 138.675 186.104C121.693 185.485 107.594 180.422 104.94 174.93C102.285 169.438 104.694 150.777 104.694 150.777Z" fill="#263238"/>
<path d="M141.659 199.464C141.659 199.464 135.871 215.673 122.74 216.28C120.663 216.403 118.58 216.133 116.603 215.484C112.81 214.143 109.704 211.351 107.969 207.721C107.432 206.698 107.009 205.619 106.71 204.503L126.63 197.963L128.272 197.418C130.744 197.291 133.222 197.35 135.685 197.596C138.058 197.858 140.413 198.403 141.659 199.464Z" fill="#00A2FF"/>
<path opacity="0.2" d="M128.676 208.523C124.407 211.893 120.542 214.26 116.601 215.484C112.808 214.143 109.703 211.35 107.968 207.72C114.005 204.129 120.235 200.872 126.628 197.963L128.27 197.418C130.742 197.29 133.221 197.35 135.684 197.596C136.137 200.112 134.621 203.835 128.676 208.523Z" fill="black"/>
<path d="M94.6927 179.355C106.429 177.341 118.489 178.448 129.663 182.565C129.663 182.565 134.328 193.92 135.007 202.419C135.007 202.419 122.969 215.385 109.582 212.903C96.1944 210.42 94.6927 179.355 94.6927 179.355Z" fill="#00A2FF"/>
<path d="M123.766 184.244C123.766 184.244 112.762 173.622 102.003 180.473" stroke="#263238" stroke-width="0.5" stroke-linecap="round" stroke-linejoin="round"/>
<path d="M95.728 163.535C95.728 163.535 97.4583 145.365 112.554 152.131C131.535 160.613 116.141 182.601 106.871 177.958C97.6013 173.315 95.728 163.535 95.728 163.535Z" fill="#263238"/>
<path d="M119.08 181.81C119.08 181.81 113.966 191.251 107.826 189.65C106.209 189.222 104.733 188.373 103.55 187.19C102.367 186.007 101.517 184.531 101.088 182.914C100.994 182.6 100.92 182.281 100.866 181.958C100.866 181.958 104.17 181.5 102.587 178.426L111.28 173.579C111.145 174.412 111.058 175.252 111.021 176.095C110.976 177.597 111.117 179.302 111.971 179.86C113.618 180.925 119.08 181.81 119.08 181.81Z" fill="#FFB573"/>
<path opacity="0.2" d="M111.052 176.1C109.88 179.549 107.088 184.711 101.119 182.919C101.025 182.605 100.951 182.286 100.897 181.963C100.897 181.963 104.201 181.504 102.618 178.43L111.311 173.584C111.176 174.417 111.089 175.257 111.052 176.1Z" fill="black"/>
<path d="M107.525 155.92C100.647 154.324 97.5736 157.491 95.4271 164.461C92.7376 173.174 93.2396 179.921 102.264 180.027C114.555 180.146 118.947 158.546 107.525 155.92Z" fill="#FFB573"/>
<path d="M99.9659 165.087C99.1763 165.987 98.2802 166.787 97.2974 167.47C97.4333 167.801 97.6576 168.089 97.9457 168.301C98.2339 168.514 98.5749 168.643 98.9315 168.675L99.9659 165.087Z" fill="#D4827D"/>
<path d="M104.305 165.483C104.16 166.047 104.347 166.578 104.725 166.678C105.104 166.778 105.522 166.398 105.692 165.837C105.861 165.276 105.65 164.741 105.271 164.642C104.893 164.542 104.447 164.935 104.305 165.483Z" fill="#263238"/>
<path d="M105.39 164.727L104.297 163.932C104.297 163.932 104.619 165.112 105.39 164.727Z" fill="#263238"/>
<path d="M97.3129 163.576C97.1692 164.133 97.3549 164.672 97.7347 164.764C98.1145 164.855 98.5317 164.483 98.6999 163.931C98.8682 163.378 98.6579 162.835 98.2794 162.735C97.9008 162.636 97.4893 163.025 97.3129 163.576Z" fill="#263238"/>
<path d="M98.4385 162.809L97.3439 162.022C97.3439 162.022 97.6825 163.205 98.4385 162.809Z" fill="#263238"/>
<path d="M105.48 160.768C106.04 160.828 106.578 161.015 107.054 161.316C107.529 161.617 107.929 162.023 108.223 162.503" stroke="#263238" stroke-width="0.72468" stroke-linecap="round" stroke-linejoin="round"/>
<path d="M100.544 159.319C100.103 159.091 99.6151 158.966 99.1182 158.952C98.6213 158.939 98.1278 159.037 97.6741 159.24" stroke="#263238" stroke-width="0.72468" stroke-linecap="round" stroke-linejoin="round"/>
<path d="M112.37 169.23C112.37 169.23 110.466 162.83 111.961 158.584C111.961 158.584 99.6307 149.845 95.7456 163.529C95.7456 163.529 97.2608 150.932 109.15 153.403C121.039 155.875 118.378 173.34 111.07 177.075C111.052 177.08 113.518 173.226 112.37 169.23Z" fill="#263238"/>
<path d="M110.889 170.427C111.012 170.04 111.211 169.68 111.474 169.37C111.736 169.059 112.058 168.804 112.419 168.618C112.781 168.432 113.176 168.319 113.581 168.286C113.986 168.253 114.394 168.3 114.781 168.425C116.857 169.153 116.855 173.769 111.311 173.584C110.512 173.554 110.255 172.71 110.889 170.427Z" fill="#FFB573"/>
<path d="M97.6705 171.281C97.8446 172.126 97.9544 172.983 97.9991 173.845L98.4576 173.915C100.514 174.112 101.522 173.545 102.04 172.787C102.278 172.433 102.429 172.028 102.481 171.605C102.519 171.367 102.522 171.125 102.49 170.886C101.166 171.327 99.7628 171.478 98.3752 171.33C97.9419 171.314 97.6705 171.281 97.6705 171.281Z" fill="#263238"/>
<path d="M98.3752 171.33L98.4943 172.085C100.428 172.264 101.838 172.136 102.481 171.605C102.519 171.367 102.522 171.125 102.49 170.886C101.166 171.327 99.7627 171.478 98.3752 171.33Z" fill="white"/>
<path d="M98.4611 173.89C100.517 174.087 101.526 173.521 102.044 172.762C101.259 172.701 100.47 172.779 99.7128 172.992C99.211 173.151 98.7727 173.466 98.4611 173.89Z" fill="#DE5753"/>
<path d="M107.547 156.451C107.547 156.451 107.688 168.404 114.847 169.918C122.006 171.431 114.34 154.548 114.34 154.548C114.34 154.548 103.735 147.455 96.5595 152.299C89.3838 157.143 95.7301 163.534 95.7301 163.534C95.7301 163.534 97.3212 154.661 107.547 156.451Z" fill="#263238"/>
<path d="M107.802 155.66C107.802 155.66 105.167 163.193 110.166 167.216" stroke="#263238" stroke-width="0.5" stroke-linecap="round" stroke-linejoin="round"/>
<path d="M102.005 180.473C98.578 182.664 113.589 190.858 123.767 184.244" stroke="#263238" stroke-width="0.5" stroke-linecap="round" stroke-linejoin="round"/>
<path d="M123.373 184.176L126.6 183.404L127.483 184.368L126.541 185.272L123.373 184.176Z" fill="#00A2FF"/>
<path opacity="0.6" d="M123.373 184.176L126.6 183.404L127.483 184.368L126.541 185.272L123.373 184.176Z" fill="white"/>
<path d="M138.639 186.493C138.639 186.493 153.793 192.496 156.535 193.686C159.278 194.876 178.22 206.679 178.22 206.679C178.22 206.679 185.887 205.036 186.59 205.973C187.293 206.91 188.475 211.289 188.141 212.268C187.807 213.248 177.305 213.653 176.857 213.241C176.253 212.432 175.714 211.577 175.245 210.682C175.245 210.682 156.214 200.558 152.56 199.137C148.906 197.715 136.214 194.627 136.214 194.627L138.639 186.493Z" fill="#FFB573"/>
<path d="M129.664 182.564C129.664 182.564 128.102 192.783 133.66 197.261L144.674 197.947L148.986 189.146C148.986 189.146 139.402 184.254 129.664 182.564Z" fill="#00A2FF"/>
<path opacity="0.2" d="M129.664 182.564C129.664 182.564 128.102 192.783 133.66 197.261L144.674 197.947L148.986 189.146C148.986 189.146 139.402 184.254 129.664 182.564Z" fill="black"/>
<path d="M264.699 113.148L265.309 109.161C265.405 108.541 265.353 107.907 265.159 107.311C264.964 106.714 264.632 106.172 264.19 105.728C263.747 105.283 263.206 104.949 262.611 104.752C262.015 104.555 261.382 104.501 260.762 104.594C257.275 105.151 244.497 134.25 244.497 134.25C244.497 134.25 238.027 139.52 237.844 140.774C237.66 142.028 242.384 146.647 243.385 145.635C244.386 144.623 249.759 142.311 250.317 140.302C250.876 138.292 249.249 135.831 249.249 135.831C249.249 135.831 261.552 117.619 264.699 113.148Z" fill="#E2A895"/>
<path d="M260.967 130.769L258.206 122.026C258.206 122.026 258.399 114.732 264.894 114.728L269.286 117.075L260.967 130.769Z" fill="#00A2FF"/>
<path opacity="0.5" d="M260.967 130.769L258.206 122.026C258.206 122.026 258.399 114.732 264.894 114.728L269.286 117.075L260.967 130.769Z" fill="white"/>
<path d="M260.416 126.144C260.416 126.144 269.474 114.96 292.737 116.589C316 118.218 331.766 134.462 331.766 134.462C331.766 134.462 331.937 163.874 307.499 168.283C298.676 169.875 289.964 163.775 289.964 163.775L289.363 153.838C289.363 153.838 261.824 135.618 260.416 126.144Z" fill="#00A2FF"/>
<path opacity="0.8" d="M328.391 150.73C326.18 156.09 322.544 161.567 316.436 165.074C313.668 166.658 310.643 167.744 307.499 168.283C298.676 169.875 289.964 163.775 289.964 163.775L289.363 153.838C289.363 153.838 261.824 135.618 260.416 126.144C260.416 126.144 269.474 114.96 292.737 116.589C315.999 118.218 331.766 134.462 331.766 134.462C331.766 134.462 331.738 134.642 331.753 134.988C331.734 135.656 331.676 136.912 331.475 138.557C331.007 142.736 329.969 146.832 328.391 150.73Z" fill="white"/>
<path d="M277.775 132.358C276.231 132.387 274.707 132.001 273.363 131.239C269.151 128.919 267.356 123.668 267.356 123.668C269.47 117.681 275.975 116.288 281.298 116.716C283.569 116.828 285.793 117.402 287.835 118.403C291.869 120.737 285.159 132.238 277.775 132.358Z" fill="#E2A895"/>
<path opacity="0.2" d="M273.363 131.239C269.151 128.919 267.356 123.668 267.356 123.668C269.47 117.681 275.975 116.288 281.298 116.716C281.526 120.429 280.865 127.602 273.363 131.239Z" fill="black"/>
<path d="M265.387 126.953C265.047 131.208 271.465 141.021 281.336 148.144C281.336 148.144 268.259 143.631 262.815 134.353C257.371 125.074 260.205 122.977 266.185 121.461L265.387 126.953Z" fill="#00A2FF"/>
<path opacity="0.4" d="M265.387 126.953C265.047 131.208 271.465 141.021 281.336 148.144C281.336 148.144 268.259 143.631 262.815 134.353C257.371 125.074 260.205 122.977 266.185 121.461L265.387 126.953Z" fill="white"/>
<path d="M281.056 115.782C290.645 116.477 289.154 119.978 293.096 126.639C301.135 140.21 354.434 146.632 354.434 146.632C354.434 146.632 345.747 130.23 329.018 122.528C312.289 114.826 281.056 115.782 281.056 115.782Z" fill="#00A2FF"/>
<path opacity="0.4" d="M281.056 115.782C290.645 116.477 289.154 119.978 293.096 126.639C301.135 140.21 354.434 146.632 354.434 146.632C354.434 146.632 345.747 130.23 329.018 122.528C312.289 114.826 281.056 115.782 281.056 115.782Z" fill="white"/>
<path d="M259.761 126.094C259.761 126.094 261.107 116.688 274.825 113.666C288.542 110.643 298.247 124.444 298.247 124.444L293.484 123.264L293.135 126.646C293.135 126.646 285.936 118.926 278.176 118.435C270.417 117.944 265.427 126.96 265.427 126.96L262.653 123.184L259.761 126.094Z" fill="#00A2FF"/>
<path opacity="0.5" d="M259.761 126.094C259.761 126.094 261.107 116.688 274.825 113.666C288.542 110.643 298.247 124.444 298.247 124.444L293.484 123.264L293.135 126.646C293.135 126.646 285.936 118.926 278.176 118.435C270.417 117.944 265.427 126.96 265.427 126.96L262.653 123.184L259.761 126.094Z" fill="white"/>
<path d="M263.706 101.492C263.706 101.492 260.676 110.354 264.892 114.728C269.109 119.101 272.145 102.145 272.145 102.145L263.706 101.492Z" fill="#263238"/>
<path d="M277.604 124.489C276.32 125.807 274.639 126.667 272.819 126.936C270.999 127.206 269.141 126.871 267.53 125.982C265.424 124.876 263.821 123.006 263.051 120.756C262.937 120.446 262.843 120.129 262.768 119.807C261.388 113.815 262.379 103.937 268.941 101.353C270.382 100.776 271.947 100.577 273.487 100.774C275.027 100.971 276.491 101.559 277.74 102.481C278.989 103.403 279.982 104.629 280.624 106.043C281.267 107.456 281.537 109.01 281.41 110.558C280.972 117.203 281.026 121.124 277.604 124.489Z" fill="#E2A895"/>
<path d="M271.311 112.332C271.346 112.874 271.019 113.31 270.66 113.305C270.3 113.3 270.025 112.856 270.023 112.319C270.021 111.783 270.323 111.343 270.674 111.346C271.026 111.35 271.311 111.787 271.311 112.332Z" fill="#263238"/>
<path d="M265.224 112.29C265.26 112.823 264.924 113.266 264.573 113.263C264.222 113.259 263.938 112.814 263.945 112.27C263.953 111.727 264.245 111.294 264.597 111.297C264.948 111.301 265.187 111.765 265.224 112.29Z" fill="#263238"/>
<path d="M267.128 112.564C266.473 114.221 265.589 115.778 264.502 117.19C264.87 117.461 265.293 117.648 265.742 117.737C266.19 117.826 266.653 117.814 267.096 117.704L267.128 112.564Z" fill="#CB946D"/>
<path d="M273.227 110.371C273.169 110.378 273.11 110.37 273.056 110.347C273.002 110.324 272.955 110.287 272.92 110.24C272.688 109.916 272.384 109.649 272.032 109.461C271.68 109.274 271.289 109.17 270.89 109.159C270.806 109.164 270.723 109.135 270.66 109.079C270.597 109.023 270.559 108.945 270.554 108.861C270.549 108.776 270.578 108.694 270.634 108.631C270.69 108.568 270.769 108.53 270.853 108.525C271.357 108.529 271.853 108.651 272.301 108.883C272.749 109.114 273.136 109.448 273.431 109.858C273.456 109.891 273.474 109.929 273.484 109.969C273.494 110.01 273.496 110.052 273.489 110.093C273.483 110.134 273.469 110.173 273.447 110.209C273.425 110.244 273.397 110.275 273.363 110.3L273.227 110.371Z" fill="#263238"/>
<path d="M262.575 110.151C262.511 110.162 262.445 110.152 262.386 110.122C262.312 110.086 262.256 110.022 262.228 109.944C262.201 109.866 262.206 109.781 262.241 109.706C262.456 109.249 262.778 108.849 263.179 108.542C263.58 108.235 264.049 108.028 264.547 107.939C264.63 107.931 264.714 107.955 264.779 108.008C264.845 108.06 264.887 108.136 264.898 108.219C264.904 108.302 264.878 108.384 264.827 108.449C264.775 108.514 264.7 108.557 264.618 108.57C264.231 108.648 263.867 108.816 263.555 109.059C263.243 109.302 262.991 109.614 262.82 109.971C262.795 110.017 262.76 110.057 262.718 110.088C262.675 110.12 262.626 110.141 262.575 110.151Z" fill="#263238"/>
<path d="M276.617 102.225L276.089 105.128C276.571 105.392 276.935 105.827 277.11 106.348C277.285 106.868 277.258 107.435 277.034 107.937C275.944 110.351 277.134 114.245 278.937 115.878C278.937 115.878 279.049 114.814 279.941 115.118C280.833 115.422 281.046 120.499 281.046 120.499C281.046 120.499 283.393 120.112 285.226 114.367C286.918 109.054 285.091 105.716 284.103 103.571L276.617 102.225Z" fill="#263238"/>
<path d="M266.558 119.298C266.813 120.074 267.008 120.868 267.142 121.674L267.577 121.674C269.535 121.638 270.432 120.979 270.828 120.252C271.018 119.897 271.119 119.501 271.122 119.099C271.13 118.869 271.106 118.64 271.05 118.417C269.852 118.97 268.551 119.262 267.232 119.275C266.817 119.304 266.558 119.298 266.558 119.298Z" fill="#263238"/>
<path d="M267.233 119.275L267.419 119.974C269.26 119.937 270.55 119.665 271.123 119.099C271.131 118.87 271.107 118.64 271.051 118.418C269.853 118.97 268.552 119.262 267.233 119.275Z" fill="white"/>
<path d="M267.576 121.674C269.534 121.638 270.43 120.979 270.826 120.252C270.083 120.279 269.35 120.436 268.661 120.717C268.209 120.917 267.83 121.251 267.576 121.674Z" fill="#DE5753"/>
<path d="M276.089 105.128C274.004 104.298 268.659 103.799 264.576 105.186C264.576 105.186 262.864 104.765 262.553 100.821C262.243 96.8775 265.129 95.2658 265.825 95.8665C266.52 96.4672 264.689 96.8827 264.451 97.944C264.451 97.944 269.245 96.7329 270.227 94.3106C271.209 91.8884 273.11 91.3998 273.724 92.4823C274.338 93.5649 271.105 95.7437 271.105 95.7437C271.105 95.7437 274.362 96.3672 276.452 94.1479C278.543 91.9287 281.604 91.1984 282.181 92.3005C282.758 93.4027 278.979 93.6795 277.789 94.7796C277.789 94.7796 283.652 93.5309 285.789 95.5C287.927 97.469 287.336 98.0993 285.716 97.4579C284.475 97.1169 283.16 97.1521 281.939 97.5591C281.939 97.5591 286.18 98.2075 287.495 100.235C288.811 102.263 290.807 101.538 291.095 102.562C291.382 103.586 287.946 103.371 287.946 103.371C287.946 103.371 289.596 105.24 291.742 104.906C293.888 104.573 294.085 107.829 289.398 106.149C289.398 106.149 289.021 109.442 290.718 110.121C292.416 110.799 291.461 112.112 290.249 111.658C289.036 111.204 288.126 109.373 288.126 109.373C288.126 109.373 289.687 113.357 288.587 114.471C287.487 115.585 287.214 112.493 287.214 112.493C287.214 112.493 287.52 117.341 286.774 117.453C286.028 117.565 285.45 115.7 285.45 115.7C285.45 115.7 285.948 119.128 284.509 119.495C283.401 119.675 282.268 119.63 281.178 119.363C281.178 119.363 279.782 106.622 276.089 105.128Z" fill="#263238"/>
<path d="M284.284 116.041C283.53 117.54 282.214 118.679 280.623 119.211C278.515 119.902 277.368 118.034 277.865 115.99C278.335 114.177 279.981 111.571 282.142 111.801C284.302 112.031 285.178 114.192 284.284 116.041Z" fill="#E2A895"/>
</g>
<defs>
<clipPath id="clip0">
<rect width="414.146" height="414.146" fill="white" transform="translate(62.5859 -64) rotate(8.69189)"/>
</clipPath>
</defs>
</svg>
