<svg width="34" height="34" viewBox="0 0 34 34" fill="none" xmlns="http://www.w3.org/2000/svg">
<path fill-rule="evenodd" clip-rule="evenodd" d="M4 0C1.79086 0 0 1.79086 0 4V30C0 32.2091 1.79086 34 4 34H30C32.2091 34 34 32.2091 34 30V4C34 1.79086 32.2091 0 30 0H4ZM13.2456 13.2462C14.0132 12.4786 15.0544 12.0473 16.14 12.0473C17.2256 12.0473 18.2667 12.4786 19.0344 13.2462C19.802 14.0138 20.2333 15.0549 20.2333 16.1404C20.2333 17.226 19.802 18.2671 19.0344 19.0347C18.2667 19.8023 17.2256 20.2335 16.14 20.2335C15.0544 20.2335 14.0132 19.8023 13.2456 19.0347C12.4779 18.2671 12.0467 17.226 12.0467 16.1404C12.0467 15.0549 12.4779 14.0138 13.2456 13.2462ZM10.6653 13.3599C10.2278 14.2215 9.99988 15.1741 10 16.1404C9.99978 17.2675 10.3098 18.3729 10.8962 19.3354C11.4825 20.298 12.3225 21.0806 13.3241 21.5975C14.3257 22.1144 15.4503 22.3456 16.5746 22.2658C17.6989 22.1861 18.7795 21.7984 19.6981 21.1452L22.2658 23.7128C22.4588 23.8992 22.7172 24.0023 22.9856 24C23.2539 23.9976 23.5105 23.89 23.7003 23.7003C23.89 23.5106 23.9976 23.2539 24 22.9856C24.0023 22.7173 23.8991 22.4588 23.7127 22.2658L21.1441 19.6973C21.704 18.9098 22.0702 18.0013 22.2127 17.0456C22.3553 16.0899 22.2703 15.114 21.9646 14.1974C21.6589 13.2807 21.1412 12.4492 20.4535 11.7703C19.7658 11.0915 18.9276 10.5845 18.007 10.2907C17.0864 9.99691 16.1095 9.9245 15.1557 10.0794C14.2019 10.2343 13.2981 10.6121 12.5178 11.1822C11.7375 11.7522 11.1028 12.4984 10.6653 13.3599Z" fill="#D9DCDD"/>
</svg>
