<svg width="20" height="20" viewBox="0 0 20 20" fill="none" xmlns="http://www.w3.org/2000/svg">
<path d="M9.28052 1.17262C9.50996 0.479771 10.49 0.479769 10.7195 1.17262L12.5586 6.72636C12.6608 7.03507 12.9486 7.24416 13.2738 7.24599L19.1241 7.27891C19.8539 7.28302 20.1568 8.21512 19.5687 8.64743L14.8551 12.1128C14.5931 12.3054 14.4832 12.6437 14.5819 12.9535L16.3584 18.5276C16.5801 19.223 15.7872 19.7991 15.1943 19.3734L10.442 15.9614C10.1779 15.7717 9.82214 15.7717 9.55797 15.9614L4.80567 19.3734C4.2128 19.7991 3.41992 19.223 3.64154 18.5276L5.41805 12.9535C5.5168 12.6437 5.40688 12.3054 5.14487 12.1128L0.431277 8.64743C-0.156763 8.21512 0.146092 7.28302 0.875935 7.27891L6.72618 7.24599C7.05137 7.24416 7.33915 7.03507 7.44138 6.72636L9.28052 1.17262Z" fill="#FF9600"/>
</svg>
