<svg width="14" height="14" viewBox="0 0 14 14" fill="none" xmlns="http://www.w3.org/2000/svg">
<path fill-rule="evenodd" clip-rule="evenodd" d="M6.13998 2.04733C5.05436 2.04733 4.01321 2.47856 3.24556 3.24617C2.47792 4.01377 2.04666 5.05486 2.04666 6.14042C2.04666 7.22597 2.47792 8.26707 3.24556 9.03467C4.01321 9.80227 5.05436 10.2335 6.13998 10.2335C7.22559 10.2335 8.26674 9.80227 9.03439 9.03467C9.80204 8.26707 10.2333 7.22597 10.2333 6.14042C10.2333 5.05486 9.80204 4.01377 9.03439 3.24617C8.26674 2.47856 7.22559 2.04733 6.13998 2.04733ZM1.16108e-07 6.14042C-0.000123198 5.17415 0.227837 4.22149 0.66534 3.35992C1.10284 2.49836 1.73753 1.75221 2.5178 1.18218C3.29806 0.612141 4.20186 0.234307 5.15568 0.0794052C6.10951 -0.0754968 7.08644 -0.00309283 8.007 0.290729C8.92757 0.58455 9.76579 1.09149 10.4535 1.77032C11.1412 2.44916 11.6589 3.28071 11.9646 4.19736C12.2703 5.11401 12.3553 6.08986 12.2127 7.04556C12.0702 8.00125 11.704 8.9098 11.1441 9.69731L13.7127 12.2658C13.8991 12.4588 14.0023 12.7173 14 12.9856C13.9976 13.2539 13.89 13.5106 13.7003 13.7003C13.5105 13.89 13.2539 13.9976 12.9856 14C12.7172 14.0023 12.4588 13.8992 12.2657 13.7128L9.69809 11.1452C8.77951 11.7984 7.69886 12.1861 6.57456 12.2658C5.45026 12.3456 4.32569 12.1144 3.32408 11.5975C2.32247 11.0806 1.48248 10.298 0.896154 9.33543C0.309824 8.37287 -0.000219045 7.26748 1.16108e-07 6.14042Z" fill="white"/>
</svg>
