<svg width="95" height="19" viewBox="0 0 95 19" fill="none" xmlns="http://www.w3.org/2000/svg">
<path d="M8.93041 1.71999C9.11205 1.17149 9.88794 1.17148 10.0696 1.71999L11.5256 6.1167C11.6065 6.3611 11.8343 6.52662 12.0918 6.52807L16.7232 6.55414C17.301 6.55739 17.5408 7.2953 17.0752 7.63755L13.3436 10.3809C13.1362 10.5334 13.0492 10.8013 13.1274 11.0465L14.5338 15.4594C14.7092 16.0099 14.0815 16.4659 13.6122 16.129L9.84993 13.4277C9.6408 13.2776 9.35919 13.2776 9.15006 13.4277L5.38783 16.129C4.91847 16.4659 4.29077 16.0099 4.46622 15.4594L5.87263 11.0465C5.9508 10.8013 5.86378 10.5334 5.65635 10.3809L1.92476 7.63755C1.45923 7.2953 1.69899 6.55739 2.27678 6.55414L6.90822 6.52807C7.16567 6.52662 7.3935 6.3611 7.47443 6.1167L8.93041 1.71999Z" fill="#FF9600"/>
<path d="M27.9304 1.71999C28.1121 1.17149 28.8879 1.17148 29.0696 1.71999L30.5256 6.1167C30.6065 6.3611 30.8343 6.52662 31.0918 6.52807L35.7232 6.55414C36.301 6.55739 36.5408 7.2953 36.0752 7.63755L32.3436 10.3809C32.1362 10.5334 32.0492 10.8013 32.1274 11.0465L33.5338 15.4594C33.7092 16.0099 33.0815 16.4659 32.6122 16.129L28.8499 13.4277C28.6408 13.2776 28.3592 13.2776 28.1501 13.4277L24.3878 16.129C23.9185 16.4659 23.2908 16.0099 23.4662 15.4594L24.8726 11.0465C24.9508 10.8013 24.8638 10.5334 24.6564 10.3809L20.9248 7.63755C20.4592 7.2953 20.699 6.55739 21.2768 6.55414L25.9082 6.52807C26.1657 6.52662 26.3935 6.3611 26.4744 6.1167L27.9304 1.71999Z" fill="#FF9600"/>
<path d="M46.9304 1.71999C47.1121 1.17149 47.8879 1.17148 48.0696 1.71999L49.5256 6.1167C49.6065 6.3611 49.8343 6.52662 50.0918 6.52807L54.7232 6.55414C55.301 6.55739 55.5408 7.2953 55.0752 7.63755L51.3436 10.3809C51.1362 10.5334 51.0492 10.8013 51.1274 11.0465L52.5338 15.4594C52.7092 16.0099 52.0815 16.4659 51.6122 16.129L47.8499 13.4277C47.6408 13.2776 47.3592 13.2776 47.1501 13.4277L43.3878 16.129C42.9185 16.4659 42.2908 16.0099 42.4662 15.4594L43.8726 11.0465C43.9508 10.8013 43.8638 10.5334 43.6564 10.3809L39.9248 7.63755C39.4592 7.2953 39.699 6.55739 40.2768 6.55414L44.9082 6.52807C45.1657 6.52662 45.3935 6.3611 45.4744 6.1167L46.9304 1.71999Z" fill="#FF9600"/>
<path d="M65.9304 1.71999C66.1121 1.17149 66.8879 1.17148 67.0696 1.71999L68.5256 6.1167C68.6065 6.3611 68.8343 6.52662 69.0918 6.52807L73.7232 6.55414C74.301 6.55739 74.5408 7.2953 74.0752 7.63755L70.3436 10.3809C70.1362 10.5334 70.0492 10.8013 70.1274 11.0465L71.5338 15.4594C71.7092 16.0099 71.0815 16.4659 70.6122 16.129L66.8499 13.4277C66.6408 13.2776 66.3592 13.2776 66.1501 13.4277L62.3878 16.129C61.9185 16.4659 61.2908 16.0099 61.4662 15.4594L62.8726 11.0465C62.9508 10.8013 62.8638 10.5334 62.6564 10.3809L58.9248 7.63755C58.4592 7.2953 58.699 6.55739 59.2768 6.55414L63.9082 6.52807C64.1657 6.52662 64.3935 6.3611 64.4744 6.1167L65.9304 1.71999Z" fill="#D3BE9E"/>
<path d="M84.9304 1.71999C85.1121 1.17149 85.8879 1.17148 86.0696 1.71999L87.5256 6.1167C87.6065 6.3611 87.8343 6.52662 88.0918 6.52807L92.7232 6.55414C93.301 6.55739 93.5408 7.2953 93.0752 7.63755L89.3436 10.3809C89.1362 10.5334 89.0492 10.8013 89.1274 11.0465L90.5338 15.4594C90.7092 16.0099 90.0815 16.4659 89.6122 16.129L85.8499 13.4277C85.6408 13.2776 85.3592 13.2776 85.1501 13.4277L81.3878 16.129C80.9185 16.4659 80.2908 16.0099 80.4662 15.4594L81.8726 11.0465C81.9508 10.8013 81.8638 10.5334 81.6564 10.3809L77.9248 7.63755C77.4592 7.2953 77.699 6.55739 78.2768 6.55414L82.9082 6.52807C83.1657 6.52662 83.3935 6.3611 83.4744 6.1167L84.9304 1.71999Z" fill="#D3BE9E"/>
</svg>
