<svg width="24" height="24" viewBox="0 0 24 24" fill="none" xmlns="http://www.w3.org/2000/svg">
<path d="M18.0538 5.67783L19.0492 4.70275C19.438 4.32188 20.06 4.32188 20.4488 4.70275L20.6694 4.91891C21.0697 5.31103 21.0697 5.95549 20.6694 6.34761L19.7035 7.29386C21.3785 9.34781 22.1872 11.9521 21.9634 14.5719C21.7396 17.1917 20.5003 19.628 18.5 21.3807C16.4998 23.1333 13.8904 24.0692 11.2078 23.996C8.5252 23.9229 5.973 22.8463 4.07538 20.9873C2.17776 19.1284 1.07875 16.6282 1.00407 14.0003C0.929391 11.3724 1.88471 8.8162 3.67382 6.85672C5.46294 4.89725 7.95004 3.68322 10.6243 3.46398C13.2986 3.24474 15.9571 4.03692 18.0538 5.67783ZM6.83283 1C6.83283 0.447716 7.28054 0 7.83283 0H15.1661C15.7184 0 16.1661 0.447715 16.1661 1V1.28576C16.1661 1.83804 15.7184 2.28576 15.1661 2.28576H7.83283C7.28054 2.28576 6.83283 1.83805 6.83283 1.28576V1Z" fill="#00A2FF"/>
<rect x="10" y="7" width="2" height="9" rx="1" fill="white"/>
<rect x="17" y="14" width="2" height="7" rx="1" transform="rotate(90 17 14)" fill="white"/>
</svg>
