<svg width="18" height="19" viewBox="0 0 18 19" fill="none" xmlns="http://www.w3.org/2000/svg">
<path d="M8.99634 19L8.70292 18.652C6.3484 15.8756 3.96088 13.7697 1.1846 12.0227L0.946205 11.8705L1.02323 11.5986C2.00611 8.11541 1.1956 4.27699 0.275061 0.982258L0 0L0.858189 0.565432C3.69682 2.43934 6.43642 4.77718 8.99999 7.51011C11.5636 4.77718 14.3032 2.43934 17.1418 0.565432L18 0L17.7249 0.982258C16.8007 4.27699 15.9902 8.11541 16.9768 11.5986L17.0538 11.8705L16.8154 12.0227C14.0391 13.7697 11.6516 15.8756 9.29705 18.652L8.99634 19ZM1.83374 11.537C4.46332 13.2261 6.75184 15.2341 8.99634 17.8256C11.2408 15.2341 13.5293 13.2261 16.1589 11.537C15.3301 8.30389 15.9095 4.85693 16.7127 1.77967C14.1235 3.58833 11.6259 5.78844 9.27872 8.33289L8.99634 8.64098L8.71394 8.33289C6.36675 5.78844 3.86919 3.58833 1.27995 1.77967C2.08313 4.8533 2.66259 8.30389 1.83374 11.537Z" fill="#FF7300"/>
</svg>
