<svg width="18" height="19" viewBox="0 0 18 19" fill="none" xmlns="http://www.w3.org/2000/svg">
<path d="M1.99407 8.22803L1.54297 11.7874C4.26424 13.5272 6.71413 15.7961 8.9953 18.3949C11.5479 15.7563 14.1188 13.4945 16.7117 11.7439L16.1762 8.22803H1.99407Z" fill="white"/>
<path d="M9.011 15.5003C6.82152 12.7384 4.69437 10.9297 1.59169 8.99781C2.2445 5.36599 1.10391 3.52833 0 0.00524902C3.12469 2.24886 6.35574 4.90929 8.99999 7.51536C11.7066 4.5867 15.0073 1.98064 18 0.00524902C17.1345 3.74218 15.6785 5.36599 16.4083 8.96519C13.335 10.8971 11.3545 12.7384 9.011 15.5003Z" fill="#FF7300"/>
<path d="M8.99634 19L8.70292 18.652C6.3484 15.8756 3.96088 13.7697 1.1846 12.0227L0.946205 11.8705L1.02323 11.5986C2.00611 8.11541 1.1956 4.27699 0.275061 0.982258L0 0L0.858189 0.565432C3.69682 2.43934 6.43642 4.77718 8.99999 7.51011C11.5636 4.77718 14.3032 2.43934 17.1418 0.565432L18 0L17.7249 0.982258C16.8007 4.27699 15.9902 8.11541 16.9768 11.5986L17.0538 11.8705L16.8154 12.0227C14.0391 13.7697 11.6516 15.8756 9.29705 18.652L8.99634 19ZM1.83374 11.537C4.46332 13.2261 6.75184 15.2341 8.99634 17.8256C11.2408 15.2341 13.5293 13.2261 16.1589 11.537C15.3301 8.30389 15.9095 4.85693 16.7127 1.77967C14.1235 3.58833 11.6259 5.78844 9.27872 8.33289L8.99634 8.64098L8.71394 8.33289C6.36675 5.78844 3.86919 3.58833 1.27995 1.77967C2.08313 4.8533 2.66259 8.30389 1.83374 11.537Z" fill="#FF7300"/>
<path d="M9.01485 15.4991C8.38771 14.7198 7.91093 14.1834 7.38281 13.6071L10.6799 13.6324C10.0564 14.2812 9.63098 14.7705 9.01485 15.4991Z" fill="#252429"/>
</svg>
