<svg width="16" height="16" viewBox="0 0 16 16" fill="none" xmlns="http://www.w3.org/2000/svg">
<path d="M1.6 8C1.6 6.09305 2.416 4.38253 3.696 3.18762L4.92 4.43982C5.168 4.69354 5.6 4.51348 5.6 4.14519V0.634114C5.6 0.404953 5.424 0.224898 5.2 0.224898H1.768C1.408 0.224898 1.232 0.666851 1.488 0.920565L2.56 2.02545C0.992 3.51499 0 5.63473 0 8C0 11.8876 2.656 15.1449 6.208 15.9797C6.712 16.0943 7.2 15.7096 7.2 15.1776C7.2 14.793 6.936 14.4656 6.568 14.3756C3.728 13.7127 1.6 11.11 1.6 8ZM16 8C16 4.11245 13.344 0.85509 9.792 0.0202898C9.288 -0.0942906 8.8 0.290372 8.8 0.822353C8.8 1.20702 9.064 1.53439 9.432 1.62442C12.272 2.28735 14.4 4.88996 14.4 8C14.4 9.90695 13.584 11.6175 12.304 12.8124L11.08 11.5602C10.832 11.3065 10.4 11.4865 10.4 11.8548V15.3659C10.4 15.595 10.576 15.7751 10.8 15.7751H14.232C14.592 15.7751 14.768 15.3331 14.512 15.0794L13.44 13.9746C15.008 12.485 16 10.3653 16 8Z" fill="#00A2FF"/>
</svg>
