<svg width="18" height="18" viewBox="0 0 18 18" fill="none" xmlns="http://www.w3.org/2000/svg">
<path d="M2.6 9C2.6 7.09305 3.416 5.38253 4.696 4.18762L5.92 5.43982C6.168 5.69354 6.6 5.51348 6.6 5.14519V1.63411C6.6 1.40495 6.424 1.2249 6.2 1.2249H2.768C2.408 1.2249 2.232 1.66685 2.488 1.92056L3.56 3.02545C1.992 4.51499 1 6.63473 1 9C1 12.8876 3.656 16.1449 7.208 16.9797C7.712 17.0943 8.2 16.7096 8.2 16.1776C8.2 15.793 7.936 15.4656 7.568 15.3756C4.728 14.7127 2.6 12.11 2.6 9ZM17 9C17 5.11245 14.344 1.85509 10.792 1.02029C10.288 0.905709 9.8 1.29037 9.8 1.82235C9.8 2.20702 10.064 2.53439 10.432 2.62442C13.272 3.28735 15.4 5.88996 15.4 9C15.4 10.9069 14.584 12.6175 13.304 13.8124L12.08 12.5602C11.832 12.3065 11.4 12.4865 11.4 12.8548V16.3659C11.4 16.595 11.576 16.7751 11.8 16.7751H15.232C15.592 16.7751 15.768 16.3331 15.512 16.0794L14.44 14.9746C16.008 13.485 17 11.3653 17 9Z" fill="#C2C5C7"/>
</svg>
