<svg width="18" height="17" viewBox="0 0 18 17" fill="none" xmlns="http://www.w3.org/2000/svg">
<path d="M8.52541 0.433333C8.67677 -0.023757 9.32334 -0.0237578 9.47471 0.433332L11.1619 5.52832C11.2294 5.73198 11.4192 5.86992 11.6338 5.87113L17.0008 5.90134C17.4823 5.90405 17.6821 6.51897 17.2941 6.80418L12.9699 9.98326C12.797 10.1103 12.7245 10.3335 12.7897 10.5379L14.4194 15.6516C14.5656 16.1104 14.0425 16.4904 13.6514 16.2096L9.29167 13.0794C9.11739 12.9543 8.88272 12.9543 8.70845 13.0794L4.3487 16.2096C3.95757 16.4904 3.43448 16.1104 3.58069 15.6516L5.21046 10.5379C5.27561 10.3335 5.20309 10.1103 5.03023 9.98326L0.705995 6.80418C0.318051 6.51897 0.517852 5.90405 0.999345 5.90134L6.36635 5.87113C6.58088 5.86992 6.77074 5.73198 6.83818 5.52832L8.52541 0.433333Z" fill="#C2C5C7"/>
</svg>
