<svg width="100" height="20" viewBox="0 0 100 20" fill="none" xmlns="http://www.w3.org/2000/svg">
<path d="M9.52534 1.43333C9.67671 0.976237 10.3233 0.976237 10.4746 1.43333L12.1619 6.52832C12.2293 6.73198 12.4192 6.86992 12.6337 6.87112L18.0007 6.90133C18.4822 6.90404 18.682 7.51896 18.2941 7.80417L13.9698 10.9833C13.797 11.1103 13.7244 11.3335 13.7896 11.5379L15.4194 16.6516C15.5656 17.1104 15.0425 17.4904 14.6514 17.2096L10.2916 14.0794C10.1173 13.9542 9.88266 13.9542 9.70838 14.0794L5.34863 17.2096C4.95751 17.4904 4.43442 17.1104 4.58063 16.6516L6.2104 11.5379C6.27555 11.3335 6.20303 11.1103 6.03017 10.9833L1.70593 7.80417C1.31799 7.51897 1.51779 6.90404 1.99928 6.90133L7.36628 6.87112C7.58082 6.86992 7.77068 6.73198 7.83812 6.52832L9.52534 1.43333Z" fill="#FF9600"/>
<path d="M29.5253 1.43333C29.6767 0.976237 30.3233 0.976237 30.4746 1.43333L32.1619 6.52832C32.2293 6.73198 32.4192 6.86992 32.6337 6.87112L38.0007 6.90133C38.4822 6.90404 38.682 7.51896 38.2941 7.80417L33.9698 10.9833C33.797 11.1103 33.7244 11.3335 33.7896 11.5379L35.4194 16.6516C35.5656 17.1104 35.0425 17.4904 34.6514 17.2096L30.2916 14.0794C30.1173 13.9542 29.8827 13.9542 29.7084 14.0794L25.3486 17.2096C24.9575 17.4904 24.4344 17.1104 24.5806 16.6516L26.2104 11.5379C26.2755 11.3335 26.203 11.1103 26.0302 10.9833L21.7059 7.80417C21.318 7.51897 21.5178 6.90404 21.9993 6.90133L27.3663 6.87112C27.5808 6.86992 27.7707 6.73198 27.8381 6.52832L29.5253 1.43333Z" fill="#FF9600"/>
<path d="M49.5253 1.43333C49.6767 0.976237 50.3233 0.976237 50.4746 1.43333L52.1619 6.52832C52.2293 6.73198 52.4192 6.86992 52.6337 6.87112L58.0007 6.90133C58.4822 6.90404 58.682 7.51896 58.2941 7.80417L53.9698 10.9833C53.797 11.1103 53.7244 11.3335 53.7896 11.5379L55.4194 16.6516C55.5656 17.1104 55.0425 17.4904 54.6514 17.2096L50.2916 14.0794C50.1173 13.9542 49.8827 13.9542 49.7084 14.0794L45.3486 17.2096C44.9575 17.4904 44.4344 17.1104 44.5806 16.6516L46.2104 11.5379C46.2755 11.3335 46.203 11.1103 46.0302 10.9833L41.7059 7.80417C41.318 7.51897 41.5178 6.90404 41.9993 6.90133L47.3663 6.87112C47.5808 6.86992 47.7707 6.73198 47.8381 6.52832L49.5253 1.43333Z" fill="#C2C5C7"/>
<path d="M69.5253 1.43333C69.6767 0.976237 70.3233 0.976237 70.4746 1.43333L72.1619 6.52832C72.2293 6.73198 72.4192 6.86992 72.6337 6.87112L78.0007 6.90133C78.4822 6.90404 78.682 7.51896 78.2941 7.80417L73.9698 10.9833C73.797 11.1103 73.7244 11.3335 73.7896 11.5379L75.4194 16.6516C75.5656 17.1104 75.0425 17.4904 74.6514 17.2096L70.2916 14.0794C70.1173 13.9542 69.8827 13.9542 69.7084 14.0794L65.3486 17.2096C64.9575 17.4904 64.4344 17.1104 64.5806 16.6516L66.2104 11.5379C66.2755 11.3335 66.203 11.1103 66.0302 10.9833L61.7059 7.80417C61.318 7.51897 61.5178 6.90404 61.9993 6.90133L67.3663 6.87112C67.5808 6.86992 67.7707 6.73198 67.8381 6.52832L69.5253 1.43333Z" fill="#C2C5C7"/>
<path d="M89.5253 1.43333C89.6767 0.976237 90.3233 0.976237 90.4746 1.43333L92.1619 6.52832C92.2293 6.73198 92.4192 6.86992 92.6337 6.87112L98.0007 6.90133C98.4822 6.90404 98.682 7.51896 98.2941 7.80417L93.9698 10.9833C93.797 11.1103 93.7244 11.3335 93.7896 11.5379L95.4194 16.6516C95.5656 17.1104 95.0425 17.4904 94.6514 17.2096L90.2916 14.0794C90.1173 13.9542 89.8827 13.9542 89.7084 14.0794L85.3486 17.2096C84.9575 17.4904 84.4344 17.1104 84.5806 16.6516L86.2104 11.5379C86.2755 11.3335 86.203 11.1103 86.0302 10.9833L81.7059 7.80417C81.318 7.51897 81.5178 6.90404 81.9993 6.90133L87.3663 6.87112C87.5808 6.86992 87.7707 6.73198 87.8381 6.52832L89.5253 1.43333Z" fill="#C2C5C7"/>
</svg>
